<svg width="234" height="40" viewBox="0 0 234 40" fill="none" xmlns="http://www.w3.org/2000/svg">
<path d="M20.8333 33C20.8333 30.2456 20.2945 27.5181 19.2475 24.9734C18.2005 22.4286 16.6659 20.1164 14.7314 18.1687C12.7968 16.2211 10.5002 14.6761 7.97257 13.622C5.44496 12.5679 2.73587 12.0254 0 12.0254L4.02173e-07 21.2885C1.52763 21.2885 3.04029 21.5914 4.45164 22.1799C5.86298 22.7685 7.14536 23.6312 8.22555 24.7187C9.30574 25.8062 10.1626 27.0973 10.7472 28.5182C11.3318 29.9391 11.6327 31.462 11.6327 33H20.8333Z" fill="#C2C8F6"/>
<path d="M20.8333 0C20.8333 2.75442 20.2945 5.48187 19.2475 8.02662C18.2005 10.5714 16.6659 12.8836 14.7314 14.8313C12.7968 16.7789 10.5002 18.3239 7.97257 19.378C5.44496 20.432 2.73587 20.9746 0 20.9746L4.02173e-07 11.7115C1.52763 11.7115 3.04029 11.4086 4.45164 10.8201C5.86298 10.2315 7.14536 9.36883 8.22555 8.28131C9.30574 7.1938 10.1626 5.90272 10.7472 4.48181C11.3318 3.0609 11.6327 1.53798 11.6327 0H20.8333Z" fill="#068FFF"/>
<path d="M29.1667 0C29.1667 2.75442 29.7055 5.48187 30.7525 8.02662C31.7995 10.5714 33.3341 12.8836 35.2686 14.8313C37.2032 16.7789 39.4998 18.3239 42.0274 19.378C44.555 20.432 47.2641 20.9746 50 20.9746V11.7115C48.4724 11.7115 46.9597 11.4086 45.5484 10.8201C44.137 10.2315 42.8547 9.36883 41.7745 8.28131C40.6943 7.1938 39.8374 5.90272 39.2528 4.48181C38.6682 3.0609 38.3673 1.53798 38.3673 0H29.1667Z" fill="#C2C8F6"/>
<path d="M29.1667 33C29.1667 30.2456 29.7055 27.5181 30.7525 24.9734C31.7995 22.4286 33.3341 20.1164 35.2686 18.1687C37.2032 16.2211 39.4998 14.6761 42.0274 13.622C44.555 12.5679 47.2641 12.0254 50 12.0254V21.2885C48.4724 21.2885 46.9597 21.5914 45.5484 22.1799C44.137 22.7685 42.8547 23.6312 41.7745 24.7187C40.6943 25.8062 39.8374 27.0973 39.2528 28.5182C38.6682 29.9391 38.3673 31.462 38.3673 33H29.1667Z" fill="#068FFF"/>
<path d="M29.1667 0L38.3724 9.16828e-07L20.8333 33H11.6327L29.1667 0Z" fill="#DCD7F4"/>
<path d="M84.72 31L73.8 3H78.44L89.64 31H84.72ZM62.36 31L73.52 3H78.2L67.28 31H62.36ZM67.6 24.12V20H84.36V24.12H67.6Z" fill="#068FFF"/>
<path d="M90.4488 31V3H94.9287V31H90.4488Z" fill="#068FFF"/>
<path d="M106.502 39.52C105.089 39.52 103.809 39.4 102.662 39.16C101.542 38.92 100.595 38.64 99.8219 38.32C99.0485 38 98.4485 37.6933 98.0219 37.4L99.7419 33.8C100.115 33.9867 100.609 34.2133 101.222 34.48C101.862 34.7733 102.609 35.0267 103.462 35.24C104.315 35.4533 105.275 35.56 106.342 35.56C107.489 35.56 108.515 35.32 109.422 34.84C110.329 34.3867 111.035 33.68 111.542 32.72C112.049 31.76 112.302 30.5333 112.302 29.04V11H116.782V28.92C116.782 31.1867 116.355 33.1067 115.502 34.68C114.649 36.28 113.449 37.48 111.902 38.28C110.355 39.1067 108.555 39.52 106.502 39.52ZM105.822 30.6C104.009 30.6 102.422 30.1867 101.062 29.36C99.7285 28.5333 98.6752 27.3867 97.9019 25.92C97.1552 24.4267 96.7819 22.7067 96.7819 20.76C96.7819 18.68 97.1552 16.88 97.9019 15.36C98.6752 13.84 99.7285 12.6533 101.062 11.8C102.422 10.9467 104.009 10.52 105.822 10.52C107.449 10.52 108.862 10.9467 110.062 11.8C111.289 12.6533 112.235 13.8533 112.902 15.4C113.569 16.92 113.902 18.72 113.902 20.8C113.902 22.7733 113.569 24.4933 112.902 25.96C112.235 27.4267 111.289 28.5733 110.062 29.4C108.862 30.2 107.449 30.6 105.822 30.6ZM107.062 26.8C108.075 26.8 108.955 26.5333 109.702 26C110.475 25.4667 111.075 24.7467 111.502 23.84C111.929 22.9067 112.142 21.84 112.142 20.64C112.142 19.4133 111.929 18.3467 111.502 17.44C111.075 16.5067 110.475 15.7867 109.702 15.28C108.929 14.7467 108.035 14.48 107.022 14.48C105.955 14.48 105.009 14.7467 104.182 15.28C103.382 15.7867 102.742 16.5067 102.262 17.44C101.809 18.3467 101.582 19.4133 101.582 20.64C101.582 21.84 101.809 22.9067 102.262 23.84C102.742 24.7467 103.395 25.4667 104.222 26C105.049 26.5333 105.995 26.8 107.062 26.8Z" fill="#068FFF"/>
<path d="M128.93 31.48C126.93 31.48 125.143 31.04 123.57 30.16C122.023 29.2533 120.81 28.0133 119.93 26.44C119.05 24.8667 118.61 23.0533 118.61 21C118.61 18.9467 119.037 17.1333 119.89 15.56C120.77 13.9867 121.983 12.76 123.53 11.88C125.077 10.9733 126.85 10.52 128.85 10.52C130.85 10.52 132.623 10.9733 134.17 11.88C135.717 12.76 136.917 13.9867 137.77 15.56C138.65 17.1333 139.09 18.9467 139.09 21C139.09 23.0533 138.663 24.8667 137.81 26.44C136.957 28.0133 135.757 29.2533 134.21 30.16C132.663 31.04 130.903 31.48 128.93 31.48ZM128.93 27.36C130.023 27.36 130.997 27.0933 131.85 26.56C132.703 26 133.37 25.2533 133.85 24.32C134.33 23.36 134.57 22.2533 134.57 21C134.57 19.7467 134.317 18.6533 133.81 17.72C133.33 16.76 132.663 16.0133 131.81 15.48C130.957 14.92 129.97 14.64 128.85 14.64C127.73 14.64 126.743 14.9067 125.89 15.44C125.037 15.9733 124.37 16.72 123.89 17.68C123.41 18.64 123.17 19.7467 123.17 21C123.17 22.2533 123.41 23.36 123.89 24.32C124.397 25.2533 125.077 26 125.93 26.56C126.81 27.0933 127.81 27.36 128.93 27.36Z" fill="#068FFF"/>
<path d="M150.652 31L161.612 3H166.572L155.252 31H150.652ZM150.172 31L138.852 3H143.772L154.732 31H150.172Z" fill="#C2C8F6"/>
<path d="M174.728 31.48C172.781 31.48 171.048 31.04 169.528 30.16C168.035 29.2533 166.848 28.0133 165.968 26.44C165.115 24.8667 164.688 23.0533 164.688 21C164.688 18.9467 165.128 17.1333 166.008 15.56C166.888 13.9867 168.088 12.76 169.608 11.88C171.155 10.9733 172.915 10.52 174.888 10.52C176.675 10.52 178.288 10.9867 179.728 11.92C181.168 12.8267 182.301 14.1467 183.128 15.88C183.981 17.6133 184.408 19.68 184.408 22.08H168.688L169.288 21.52C169.288 22.7467 169.555 23.8133 170.088 24.72C170.621 25.6 171.328 26.28 172.208 26.76C173.088 27.24 174.061 27.48 175.128 27.48C176.355 27.48 177.368 27.2133 178.168 26.68C178.968 26.12 179.595 25.4 180.048 24.52L184.008 26.2C183.448 27.2667 182.728 28.2 181.848 29C180.995 29.8 179.968 30.4133 178.768 30.84C177.595 31.2667 176.248 31.48 174.728 31.48ZM169.568 19.2L168.928 18.64H180.208L179.608 19.2C179.608 18.1067 179.368 17.2133 178.888 16.52C178.408 15.8 177.795 15.2667 177.048 14.92C176.328 14.5467 175.568 14.36 174.768 14.36C173.968 14.36 173.168 14.5467 172.368 14.92C171.568 15.2667 170.901 15.8 170.368 16.52C169.835 17.2133 169.568 18.1067 169.568 19.2Z" fill="#C2C8F6"/>
<path d="M188.799 20.36C188.799 18.2 189.213 16.4267 190.039 15.04C190.866 13.6533 191.933 12.6267 193.239 11.96C194.573 11.2667 195.959 10.92 197.399 10.92V15.2C196.173 15.2 195.013 15.3733 193.919 15.72C192.853 16.04 191.986 16.5733 191.319 17.32C190.653 18.0667 190.319 19.0533 190.319 20.28L188.799 20.36ZM185.839 31V11H190.319V31H185.839Z" fill="#C2C8F6"/>
<path d="M205.651 31.48C204.317 31.48 203.091 31.28 201.971 30.88C200.851 30.48 199.891 29.92 199.091 29.2C198.291 28.4533 197.677 27.5867 197.251 26.6L201.131 24.88C201.531 25.6267 202.117 26.2533 202.891 26.76C203.691 27.2667 204.571 27.52 205.531 27.52C206.571 27.52 207.397 27.3467 208.011 27C208.651 26.6267 208.971 26.12 208.971 25.48C208.971 24.8667 208.731 24.4 208.251 24.08C207.771 23.7333 207.091 23.4533 206.211 23.24L204.331 22.72C202.437 22.24 200.957 21.48 199.891 20.44C198.824 19.3733 198.291 18.16 198.291 16.8C198.291 14.8 198.931 13.2533 200.211 12.16C201.517 11.0667 203.384 10.52 205.811 10.52C207.037 10.52 208.157 10.7067 209.171 11.08C210.211 11.4267 211.104 11.9333 211.851 12.6C212.597 13.24 213.117 14 213.411 14.88L209.691 16.56C209.424 15.8933 208.917 15.3867 208.171 15.04C207.424 14.6667 206.597 14.48 205.691 14.48C204.784 14.48 204.077 14.68 203.571 15.08C203.064 15.4533 202.811 15.9867 202.811 16.68C202.811 17.08 203.037 17.4533 203.491 17.8C203.944 18.12 204.597 18.3867 205.451 18.6L207.811 19.16C209.117 19.48 210.184 19.9867 211.011 20.68C211.837 21.3467 212.451 22.1067 212.851 22.96C213.251 23.7867 213.451 24.6267 213.451 25.48C213.451 26.68 213.104 27.7333 212.411 28.64C211.744 29.5467 210.824 30.2533 209.651 30.76C208.477 31.24 207.144 31.48 205.651 31.48Z" fill="#C2C8F6"/>
<path d="M223.923 31.48C221.977 31.48 220.243 31.04 218.723 30.16C217.23 29.2533 216.043 28.0133 215.163 26.44C214.31 24.8667 213.883 23.0533 213.883 21C213.883 18.9467 214.323 17.1333 215.203 15.56C216.083 13.9867 217.283 12.76 218.803 11.88C220.35 10.9733 222.11 10.52 224.083 10.52C225.87 10.52 227.483 10.9867 228.923 11.92C230.363 12.8267 231.497 14.1467 232.323 15.88C233.177 17.6133 233.603 19.68 233.603 22.08H217.883L218.483 21.52C218.483 22.7467 218.75 23.8133 219.283 24.72C219.817 25.6 220.523 26.28 221.403 26.76C222.283 27.24 223.257 27.48 224.323 27.48C225.55 27.48 226.563 27.2133 227.363 26.68C228.163 26.12 228.79 25.4 229.243 24.52L233.203 26.2C232.643 27.2667 231.923 28.2 231.043 29C230.19 29.8 229.163 30.4133 227.963 30.84C226.79 31.2667 225.443 31.48 223.923 31.48ZM218.763 19.2L218.123 18.64H229.403L228.803 19.2C228.803 18.1067 228.563 17.2133 228.083 16.52C227.603 15.8 226.99 15.2667 226.243 14.92C225.523 14.5467 224.763 14.36 223.963 14.36C223.163 14.36 222.363 14.5467 221.563 14.92C220.763 15.2667 220.097 15.8 219.563 16.52C219.03 17.2133 218.763 18.1067 218.763 19.2Z" fill="#C2C8F6"/>
</svg>
